<svg width="189" height="39" viewBox="0 0 189 39" fill="none" xmlns="http://www.w3.org/2000/svg">
<path d="M33.9881 20.6535L34.013 20.6554L36.6166 20.9276C36.7994 20.9473 36.9672 21.0365 37.0859 21.176L37.1052 21.1997L37.0805 21.212C37.2021 21.3656 37.2558 21.5621 37.2289 21.7562C36.66 26.2786 34.5165 30.4562 31.1746 33.5556C27.707 36.7718 23.1522 38.5587 18.4227 38.5587C16.1256 38.5624 13.8481 38.1395 11.7059 37.3117L11.5892 37.2662C11.4139 37.2014 11.273 37.068 11.1984 36.8976L11.1872 36.8704C11.1142 36.7007 11.1101 36.5097 11.175 36.3378L12.2027 33.8305C12.342 33.476 12.7366 33.2975 13.093 33.4231L13.1167 33.432C18.3696 35.4602 24.3191 34.3179 28.4473 30.4883C31.075 28.0738 32.7694 24.812 33.2338 21.2738C33.283 20.9085 33.6 20.6427 33.9632 20.6524L33.9881 20.6535ZM95.4778 10.0125C97.6978 10.0125 99.4339 10.6898 100.543 11.9906L100.58 12.0347V10.9339C100.595 10.6267 100.833 10.3783 101.136 10.3483L101.161 10.3464H104.123C104.428 10.3675 104.671 10.6073 104.697 10.9093L104.699 10.9339V27.3777C104.794 29.6964 104.082 31.9764 102.682 33.8278C101.087 35.7696 98.6627 36.7529 95.4778 36.7529C91.05 36.7529 87.5558 33.9515 86.9807 29.9502C86.9522 29.6614 87.1281 29.3928 87.4016 29.3022L87.426 29.2947L90.3202 28.6145C90.3353 28.6111 90.3504 28.6082 90.3657 28.606C90.6834 28.5594 90.9786 28.7792 91.0252 29.0969C91.2895 31.3413 93.2186 33.0157 95.4778 32.962C98.9002 32.962 100.51 31.2224 100.542 27.5873L100.543 27.4766V26.0357C99.2598 27.4745 97.4045 28.2696 95.4778 28.2063C90.5552 28.2063 86.987 24.3845 86.987 19.1279C86.9419 16.7629 87.7746 14.4649 89.3245 12.6778C90.8987 10.9483 93.1395 9.97779 95.4778 10.0125ZM6.32717 30.012L6.36387 30.0117L6.40071 30.0121C7.58232 30.0256 8.53371 30.981 8.54655 32.1583L8.54664 32.1952C8.54664 32.2074 8.5465 32.2197 8.54629 32.2319C8.52571 33.4374 7.53194 34.398 6.32646 34.3776C5.12097 34.357 4.16041 33.3632 4.18077 32.1577C4.20093 30.9769 5.15496 30.0309 6.32717 30.012ZM146.754 9.78367L146.906 9.78479C152.198 9.85787 155.477 13.5414 155.477 19.4371C155.477 19.7491 155.46 20.0608 155.427 20.3709C155.4 20.6562 155.167 20.8762 154.883 20.8897L154.858 20.8904H142.28C142.357 23.5322 144.541 25.6226 147.184 25.5842C149.232 25.7129 151.099 24.4103 151.686 22.4427C151.793 22.1602 152.098 22.0083 152.386 22.0893L152.409 22.0964L154.92 22.9807C155.059 23.0253 155.172 23.1237 155.236 23.253L155.248 23.2776C155.317 23.4138 155.328 23.572 155.28 23.7166C154.113 27.1695 150.827 29.4541 147.184 29.3442C144.796 29.368 142.497 28.4349 140.802 26.7531C138.951 24.806 137.964 22.1956 138.062 19.5114C138.062 13.4809 142.396 9.85665 146.629 9.78477L146.754 9.78367ZM75.577 9.78368H75.5832C80.9697 9.78368 84.3154 13.4818 84.3154 19.4371C84.315 19.7491 84.2984 20.0608 84.2659 20.3709C84.2409 20.6577 84.006 20.8793 83.7208 20.89L83.6969 20.8904H71.1183C71.1958 23.5396 73.391 25.6329 76.0409 25.5843C78.0907 25.7153 79.9587 24.4118 80.543 22.4427C80.6477 22.158 80.9546 22.005 81.2432 22.089L81.2665 22.0964L83.7773 22.9807C83.9241 23.0281 84.0434 23.1362 84.1051 23.2776C84.1638 23.418 84.1638 23.5762 84.1051 23.7166C82.9398 27.1673 79.6567 29.4514 76.0162 29.3442C73.6238 29.3713 71.3203 28.438 69.6216 26.7531C67.7737 24.8046 66.7865 22.1951 66.8821 19.5114C66.8821 13.42 71.3038 9.78368 75.577 9.78368ZM56.5297 9.77743C58.9477 9.77743 60.902 10.3649 62.3491 11.5213C63.3276 12.3011 64.0528 13.3535 64.4331 14.5455L64.4343 14.5503C64.484 14.7558 64.3632 14.9627 64.1628 15.0223L64.1425 15.0278L61.1432 16.0173C61.01 16.07 60.8619 16.07 60.7288 16.0173C60.6152 15.9643 60.5298 15.8652 60.4938 15.7452L60.4778 15.6862C60.2046 14.7096 59.3115 13.1416 56.5297 13.1416C54.5508 13.1416 53.3635 14.2796 53.3635 15.3804L53.3639 15.4239C53.3788 16.1397 53.768 17.0382 55.4747 17.3798L55.5279 17.3902L58.8303 18.0086C62.4792 18.7433 64.5825 20.7265 64.6242 23.4904L64.6248 23.5744L64.6125 23.525L64.6117 23.6088C64.5586 26.3794 61.8788 29.2947 56.9441 29.2947C51.1619 29.2947 48.8923 26.0233 48.4717 24.0939C48.4443 23.892 48.5674 23.7014 48.76 23.642L48.7809 23.6362L51.8731 22.6715C51.9283 22.6625 51.9848 22.6625 52.04 22.6715C52.1187 22.6701 52.1964 22.6868 52.2673 22.7201L52.2935 22.7333C52.4071 22.7877 52.4909 22.8897 52.5223 23.0116C52.912 24.8669 54.5879 25.9739 56.9997 25.9739C59.2446 25.9739 60.265 24.7988 60.265 23.7352C60.265 22.6832 59.3757 21.9033 57.8427 21.5813L57.7913 21.5707L54.322 20.8966C51.0876 20.2844 49.0717 18.2745 49.0717 15.6586C49.0717 12.4737 52.4915 9.77743 56.5297 9.77743ZM181.253 4.62604H183.956C184.274 4.64518 184.524 4.9038 184.536 5.22056L184.537 5.24442V10.3217H187.789C188.105 10.3439 188.352 10.6014 188.364 10.9158L188.365 10.9401V13.6364L188.365 13.6598C188.356 13.9621 188.115 14.2077 187.813 14.2231L187.789 14.2239H184.537V23.2466C184.537 24.7431 185.13 25.3616 186.657 25.3616C186.966 25.3563 187.276 25.3328 187.582 25.2914L187.697 25.275C187.865 25.2464 188.037 25.2941 188.166 25.4049C188.283 25.5132 188.353 25.6621 188.364 25.8204L188.365 25.8502V28.3918C188.367 28.6509 188.198 28.8803 187.95 28.9546C187.238 29.154 186.502 29.2541 185.763 29.2523L185.662 29.2514C182.435 29.2514 180.422 27.1967 180.382 23.8734L180.381 23.7723V14.261H177.567C177.26 14.2429 177.014 14.0022 176.987 13.6983L176.986 13.6735V10.9648C176.985 10.6452 177.228 10.3793 177.543 10.3483L177.567 10.3464L178.323 10.3463L178.404 10.3449C179.287 10.3195 180.643 9.96158 180.671 7.99042L180.672 7.92831V5.24442C180.671 4.92487 180.914 4.65892 181.229 4.62792L181.253 4.62604ZM128.727 9.78093L128.798 9.78368H128.792C131.976 9.78368 135.19 12.002 135.254 16.8467L135.255 16.9943V28.4475C135.24 28.7548 135.001 29.003 134.698 29.0331L134.673 29.035H131.711C131.404 29.0169 131.159 28.7763 131.131 28.4723L131.13 28.4475V17.3655L131.129 17.2801C131.111 15.8681 130.631 13.5992 127.723 13.5992C125.573 13.5992 124.042 15.2721 124.012 17.7058L124.011 17.7798V28.4475C123.997 28.7548 123.759 29.003 123.455 29.0331L123.43 29.035H120.431C120.124 29.0169 119.878 28.7763 119.852 28.4723L119.85 28.4475V17.3655L119.85 17.2801C119.831 15.8681 119.352 13.5992 116.442 13.5992C114.207 13.5992 112.694 15.26 112.664 17.7414L112.664 17.8169V28.4475C112.648 28.7548 112.411 29.003 112.107 29.0331L112.083 29.035H109.12C108.815 29.014 108.573 28.774 108.547 28.4721L108.545 28.4475V10.8968C108.56 10.5917 108.794 10.3442 109.095 10.3114L109.12 10.3093H111.971C112.278 10.3273 112.524 10.568 112.551 10.872L112.552 10.8968V11.9543C113.835 10.5482 115.658 9.75823 117.561 9.78368C119.765 9.71909 121.822 10.8844 122.899 12.8076C124.181 10.8486 126.391 9.70249 128.727 9.78093ZM173.083 11.9666C174.218 13.4617 174.803 15.3006 174.743 17.1749L174.74 17.2541V28.4475C174.726 28.7526 174.491 29.0001 174.19 29.0329L174.165 29.035H171.167C170.859 29.0169 170.613 28.7763 170.586 28.4723L170.584 28.4475V17.854C170.584 15.0835 169.28 13.6735 166.806 13.6735C165.714 13.6382 164.669 14.1249 163.992 14.9845C163.338 15.9281 163 17.0541 163.026 18.2008L163.028 18.2683V28.4475C163.012 28.7548 162.775 29.003 162.471 29.0331L162.447 29.035H159.453C159.147 29.0169 158.9 28.7763 158.874 28.4723L158.872 28.4475V10.8844C158.887 10.5771 159.125 10.3289 159.429 10.2988L159.453 10.2968H162.379C162.683 10.3179 162.926 10.5579 162.952 10.8598L162.954 10.8844V12.1213C164.208 10.6011 166.091 9.73966 168.062 9.78368C169.982 9.70159 171.834 10.5066 173.083 11.9666ZM0.717377 21.4037H22.0096C22.4009 21.4071 22.717 21.7204 22.7268 22.1086L22.727 22.1335V24.7989C22.7303 25.1902 22.4223 25.5116 22.0344 25.528L22.0095 25.5286H0.717377C0.326032 25.5253 0.0100446 25.2119 0 24.8237V24.7988V22.1334V22.1085C0.00983504 21.7288 0.312538 21.4207 0.69197 21.4044L0.717377 21.4037ZM95.9911 13.7106C93.0722 13.7106 91.2169 15.7885 91.2169 19.1279C91.2169 22.4674 93.0474 24.5391 95.9911 24.5391C98.7987 24.5391 100.691 22.3623 100.691 19.1279C100.691 15.8874 98.7987 13.7106 95.9911 13.7106ZM71.2499 17.3238L71.242 17.3902H80.042C79.8278 15.0392 78.171 13.5732 75.6896 13.5441L75.6142 13.5436C73.4277 13.5081 71.5657 15.1073 71.2587 17.2585L71.2499 17.3238ZM142.436 17.3238L142.428 17.3902H151.229C151.014 15.0392 149.357 13.5732 146.876 13.5441L146.8 13.5436C144.614 13.5081 142.752 15.1073 142.445 17.2585L142.436 17.3238ZM24.675 1.06389C24.8593 1.1304 25.0088 1.26871 25.0893 1.44733C25.1632 1.62765 25.1632 1.82982 25.0893 2.01004L24.1617 4.4838C24.0331 4.85059 23.6321 5.04416 23.265 4.91667C18.4053 3.22082 13.0129 4.18436 9.04132 7.45831C6.56618 9.53007 4.8087 12.3308 4.01976 15.4606C3.93808 15.7767 3.6535 15.9978 3.32712 15.9987H3.16632L0.618414 15.3865C0.428443 15.3418 0.265307 15.221 0.166981 15.0525H0.15457C0.0514705 14.8841 0.0224074 14.6805 0.0742756 14.4898C1.08608 10.4833 3.35003 6.90431 6.53669 4.27346C11.6039 0.101838 18.484 -1.11563 24.675 1.06389ZM15.2441 11.7502H36.5362C36.9179 11.7533 37.2298 12.0518 37.2525 12.4298L37.2536 12.4552V15.1206C37.2569 15.5119 36.9491 15.8333 36.5611 15.8497L36.5362 15.8503H15.2441C14.8553 15.8437 14.5429 15.5315 14.5331 15.1458L14.5328 15.1206V12.4799C14.5294 12.0911 14.8335 11.7709 15.2188 11.7511L15.2441 11.7502ZM30.025 3.61791L30.0617 3.61763L30.0985 3.61795C31.2801 3.63149 32.2315 4.58694 32.2444 5.76411L32.2445 5.80097C32.2445 5.81328 32.2443 5.82558 32.2441 5.83778C32.2236 7.04326 31.2298 8.00383 30.0243 7.98336C28.8188 7.96289 27.8582 6.96901 27.8787 5.76364C27.8987 4.58265 28.8529 3.63679 30.025 3.61791Z" fill="#4FB58B"/>
</svg>
