<svg width="15" height="13" viewBox="0 0 15 13" fill="none" xmlns="http://www.w3.org/2000/svg">
<path d="M6.81097 1.43824C7.13899 0.581797 8.35065 0.581797 8.67867 1.43824L9.74831 4.23102C9.89648 4.6179 10.2679 4.87336 10.6822 4.87336L13.7456 4.87336C14.7535 4.87336 15.1284 6.19577 14.2703 6.72464L12.0902 8.06838C11.6809 8.32063 11.5091 8.82839 11.681 9.27733L12.5773 11.6173C12.9193 12.5104 11.9329 13.3281 11.1187 12.8263L8.26952 11.0701C7.94782 10.8718 7.54182 10.8718 7.22012 11.0701L4.37093 12.8263C3.55677 13.3281 2.57031 12.5104 2.91238 11.6173L3.80859 9.27733C3.98053 8.82839 3.80869 8.32063 3.39944 8.06838L1.21933 6.72464C0.361279 6.19577 0.736085 4.87336 1.74404 4.87336L4.80748 4.87336C5.22177 4.87336 5.59315 4.6179 5.74133 4.23102L6.81097 1.43824Z" fill="#F9896B"/>
</svg>
