<svg width="36" height="34" viewBox="0 0 36 34" fill="none" xmlns="http://www.w3.org/2000/svg">
<path d="M18.8 0.200012C12.2952 0.200012 6.39362 3.95157 3.61882 9.80001H1.20006C0.923495 9.80001 0.665698 9.94376 0.520378 10.1797C0.375066 10.4156 0.361003 10.7094 0.484441 10.9578L3.68444 17.3578C3.82038 17.6281 4.09692 17.8 4.40008 17.8C4.70324 17.8 4.97976 17.6281 5.11572 17.3578L8.31572 10.9578C8.43916 10.7094 8.42666 10.4156 8.27978 10.1797C8.13447 9.94376 7.87666 9.80001 7.6001 9.80001H5.41418C8.04854 4.90321 13.1734 1.80001 18.8002 1.80001C27.1814 1.80001 34.0002 8.61881 34.0002 17C34.0002 25.3812 27.1814 32.2 18.8002 32.2C12.5754 32.2 7.04218 28.4688 4.70658 22.6936C4.54096 22.2843 4.0769 22.0874 3.66438 22.2514C3.25502 22.417 3.05658 22.8827 3.22218 23.2936C5.80498 29.6764 11.919 33.8 18.8002 33.8C28.0642 33.8 35.6002 26.264 35.6002 17C35.6002 7.73601 28.0642 0.200012 18.8002 0.200012H18.8ZM4.40002 15.2108L2.49378 11.3999H6.3047L4.40002 15.2108ZM22 18.5999C22 19.9233 20.9235 20.9999 19.6 20.9999V22.1999C19.6 22.6421 19.2422 22.9999 18.8 22.9999C18.3578 22.9999 18 22.6421 18 22.1999V20.9999H16.8C16.3578 20.9999 16 20.6421 16 20.1999C16 19.7577 16.3578 19.3999 16.8 19.3999H19.6C20.0407 19.3999 20.4 19.0405 20.4 18.5999C20.4 18.1593 20.0406 17.7999 19.6 17.7999H18C16.6766 17.7999 15.6 16.7233 15.6 15.3999C15.6 14.0764 16.6766 12.9999 18 12.9999V11.7999C18 11.3577 18.3578 10.9999 18.8 10.9999C19.2422 10.9999 19.6 11.3577 19.6 11.7999V12.9999H20.8C21.2422 12.9999 21.6 13.3577 21.6 13.7999C21.6 14.2421 21.2422 14.5999 20.8 14.5999H18C17.5594 14.5999 17.2 14.9593 17.2 15.3999C17.2 15.8405 17.5594 16.1999 18 16.1999H19.6C20.9235 16.1999 22 17.2764 22 18.5999ZM18.8 26.1999C13.7264 26.1999 9.60002 22.0735 9.60002 16.9999C9.60002 11.9263 13.7264 7.79989 18.8 7.79989C23.8736 7.79989 28 11.9263 28 16.9999C28 22.0735 23.8736 26.1999 18.8 26.1999ZM18.8 9.39989C14.6092 9.39989 11.2 12.8092 11.2 16.9999C11.2 21.1905 14.6094 24.5999 18.8 24.5999C22.9907 24.5999 26.4 21.1905 26.4 16.9999C26.4 12.8092 22.9907 9.39989 18.8 9.39989Z" fill="black"/>
</svg>
